<svg width="1921" height="1200" viewBox="0 0 1921 1200" fill="none" xmlns="http://www.w3.org/2000/svg">
<path opacity="0.05" d="M51.666 1021.21L51.666 2101.21M16.8262 1021.21L16.8262 2101.21M86.666 1021.21L86.666 2101.21M121.666 1021.21L121.666 2101.21M156.666 1021.21L156.666 2101.21M191.666 1021.21L191.666 2101.21M226.666 1021.21L226.666 2101.21M261.666 1021.21L261.666 2101.21M296.666 1021.21L296.666 2101.21M331.666 1021.21L331.666 2101.21M366.666 1021.21L366.666 2101.21M401.666 1021.21L401.666 2101.21M436.666 1021.21L436.666 2101.21M471.666 1021.21L471.666 2101.21M506.666 1021.21L506.666 2101.21M541.666 1021.21L541.666 2101.21M576.666 1021.21L576.666 2101.21M611.666 1021.21L611.666 2101.21M646.666 1021.21L646.666 2101.21M681.666 1021.21L681.666 2101.21M716.666 1021.21L716.666 2101.21M751.666 1021.21L751.666 2101.21M786.666 1021.21L786.666 2101.21M821.666 1021.21L821.666 2101.21M856.666 1021.21L856.666 2101.21M891.666 1021.21L891.666 2101.21M926.666 1021.21V2101.21M961.666 1021.21V2101.21M996.666 1021.21V2101.21M1031.67 1021.21V2101.21M1066.67 1021.21V2101.21M1101.67 1021.21V2101.21M1136.67 1021.21V2101.21M1171.67 1021.21V2101.21M1206.67 1021.21V2101.21M1241.67 1021.21V2101.21M1276.67 1021.21V2101.21M1311.67 1021.21V2101.21M1346.67 1021.21V2101.21M1381.67 1021.21V2101.21M1416.67 1021.21V2101.21M1451.67 1021.21V2101.21M1486.67 1021.21V2101.21M1521.67 1021.21V2101.21M1556.67 1021.21V2101.21M1591.67 1021.21V2101.21M1626.67 1021.21V2101.21M1661.67 1021.21V2101.21M1696.67 1021.21V2101.21M1731.67 1021.21V2101.21M1766.07 1021.21V2101.21M1800.48 1021.21V2101.21M1834.88 1021.21V2101.21M1869.29 1021.21V2101.21M1903.7 1021.21V2101.21M-0.240189 2088.31H1919.76M-0.240189 2053.31H1919.76M-0.240189 2018.31H1919.76M-0.240196 1983.31H1919.76M-0.240196 1948.31H1919.76M-0.240196 1913.31H1919.76M-0.240196 1878.31H1919.76M-0.240196 1843.31H1919.76M-0.240204 1808.31H1919.76M-0.240204 1773.31H1919.76M-0.240204 1738.31H1919.76M-0.240204 1703.31H1919.76M-0.240204 1668.31H1919.76M-0.240211 1633.31H1919.76M-0.240211 1598.31H1919.76M-0.240211 1563.31H1919.76M-0.240211 1528.31H1919.76M-0.240211 1493.31H1919.76M-0.240219 1458.31H1919.76M-0.240219 1423.31H1919.76M-0.240219 1388.31H1919.76M-0.240219 1353.31H1919.76M-0.240219 1318.31H1919.76M-0.240227 1283.31H1919.76M-0.240227 1248.31H1919.76M-0.240227 1213.31H1919.76M-0.240227 1178.31H1919.76M-0.240227 1143.31H1919.76M-0.240234 1108.31H1919.76M-0.240234 1073.31H1919.76M-0.240234 1038.31H1919.76M716.807 1208.72V1217.6M721.314 1213.29H712.359M857.041 1208.72V1217.6M861.549 1213.29H852.594M857.041 1348.71V1357.59M861.549 1353.29H852.594M716.814 1348.71V1357.59M721.322 1353.29H712.367M1277.18 1208.72V1217.6M1281.69 1213.29H1272.73M1417.42 1208.72V1217.6M1421.92 1213.29H1412.97M1417.42 1348.71V1357.59M1421.92 1353.29H1412.97M1277.19 1348.71V1357.59M1281.7 1353.29H1272.74M436.619 1208.72V1217.6M441.127 1213.29H432.172M576.854 1208.72V1217.6M581.361 1213.29H572.406M576.854 1348.71V1357.59M581.361 1353.29H572.406M436.627 1348.71V1357.59M441.135 1353.29H432.18M996.994 1208.72V1217.6M1001.5 1213.29H992.547M1137.23 1208.72V1217.6M1141.74 1213.29H1132.78M1137.23 1348.71V1357.59M1141.74 1353.29H1132.78M997.002 1348.71V1357.59M1001.51 1353.29H992.555M1557.37 1208.72V1217.6M1561.88 1213.29H1552.92M1697.6 1208.72V1217.6M1702.11 1213.29H1693.16M1697.6 1348.71V1357.59M1702.11 1353.29H1693.16M1557.38 1348.71V1357.59M1561.88 1353.29H1552.93M1837.56 1208.72V1217.6M1842.06 1213.29H1833.11M1977.79 1208.72V1217.6M1982.3 1213.29H1973.34M1977.79 1348.71V1357.59M1982.3 1353.29H1973.34M1837.56 1348.71V1357.59M1842.07 1353.29H1833.12M156.432 1208.72V1217.6M160.939 1213.29H151.984M296.666 1208.72V1217.6M301.174 1213.29H292.219M296.666 1348.71V1357.59M301.174 1353.29H292.219M156.439 1348.71V1357.59M160.947 1353.29H151.992M-123.303 1208.72L-123.303 1217.6M-118.795 1213.29H-127.75M16.9316 1208.72V1217.6M21.4395 1213.29H12.4844M16.9316 1348.71V1357.59M21.4395 1353.29H12.4844M-123.295 1348.71L-123.295 1357.59M-118.787 1353.29H-127.742M716.807 1488.59V1497.47M721.314 1493.17H712.359M857.041 1488.59V1497.47M861.549 1493.17H852.594M857.041 1628.59V1637.47M861.549 1633.16H852.594M716.814 1628.59V1637.47M721.322 1633.16H712.367M1277.18 1488.59V1497.47M1281.69 1493.17H1272.73M1417.42 1488.59V1497.47M1421.92 1493.17H1412.97M1417.42 1628.59V1637.47M1421.92 1633.16H1412.97M1277.19 1628.59V1637.47M1281.7 1633.16H1272.74M436.619 1488.59V1497.47M441.127 1493.17H432.172M576.854 1488.59V1497.47M581.361 1493.17H572.406M576.854 1628.59V1637.47M581.361 1633.16H572.406M436.627 1628.59V1637.47M441.135 1633.16H432.18M996.994 1488.59V1497.47M1001.5 1493.17H992.547M1137.23 1488.59V1497.47M1141.74 1493.17H1132.78M1137.23 1628.59V1637.47M1141.74 1633.16H1132.78M997.002 1628.59V1637.47M1001.51 1633.16H992.555M1557.37 1488.59V1497.47M1561.88 1493.17H1552.92M1697.6 1488.59V1497.47M1702.11 1493.17H1693.16M1697.6 1628.59V1637.47M1702.11 1633.16H1693.16M1557.38 1628.59V1637.47M1561.88 1633.16H1552.93M1837.56 1488.59V1497.47M1842.06 1493.17H1833.11M1977.79 1488.59V1497.47M1982.3 1493.17H1973.34M1977.79 1628.59V1637.47M1982.3 1633.16H1973.34M1837.56 1628.59V1637.47M1842.07 1633.16H1833.12M156.432 1488.59V1497.47M160.939 1493.17H151.984M296.666 1488.59V1497.47M301.174 1493.17H292.219M296.666 1628.59V1637.47M301.174 1633.16H292.219M156.439 1628.59V1637.47M160.947 1633.16H151.992M-123.303 1488.59L-123.303 1497.47M-118.795 1493.17H-127.75M16.9316 1488.59V1497.47M21.4395 1493.17H12.4844M16.9316 1628.59V1637.47M21.4395 1633.16H12.4844M-123.295 1628.59L-123.295 1637.47M-118.787 1633.16H-127.742M716.807 1768.37V1777.25M721.314 1772.94H712.359M857.041 1768.37V1777.25M861.549 1772.94H852.594M857.041 1908.37V1917.25M861.549 1912.94H852.594M716.814 1908.37V1917.25M721.322 1912.94H712.367M1277.18 1768.37V1777.25M1281.69 1772.94H1272.73M1417.42 1768.37V1777.25M1421.92 1772.94H1412.97M1417.42 1908.37V1917.25M1421.92 1912.94H1412.97M1277.19 1908.37V1917.25M1281.7 1912.94H1272.74M436.619 1768.37V1777.25M441.127 1772.94H432.172M576.854 1768.37V1777.25M581.361 1772.94H572.406M576.854 1908.37V1917.25M581.361 1912.94H572.406M436.627 1908.37V1917.25M441.135 1912.94H432.18M996.994 1768.37V1777.25M1001.5 1772.94H992.547M1137.23 1768.37V1777.25M1141.74 1772.94H1132.78M1137.23 1908.37V1917.25M1141.74 1912.94H1132.78M997.002 1908.37V1917.25M1001.51 1912.94H992.555M1557.37 1768.37V1777.25M1561.88 1772.94H1552.92M1697.6 1768.37V1777.25M1702.11 1772.94H1693.16M1697.6 1908.37V1917.25M1702.11 1912.94H1693.16M1557.38 1908.37V1917.25M1561.88 1912.94H1552.93M1837.56 1768.37V1777.25M1842.06 1772.94H1833.11M1977.79 1768.37V1777.25M1982.3 1772.94H1973.34M1977.79 1908.37V1917.25M1982.3 1912.94H1973.34M1837.56 1908.37V1917.25M1842.07 1912.94H1833.12M156.432 1768.47V1777.35M160.939 1773.04H151.984M296.666 1768.47V1777.35M301.174 1773.04H292.219M296.666 1908.47V1917.35M301.174 1913.04H292.219M156.439 1908.47V1917.35M160.947 1913.04H151.992M-123.303 1768.37L-123.303 1777.25M-118.795 1772.94H-127.75M16.9316 1768.37V1777.25M21.4395 1772.94H12.4844M16.9316 1908.37V1917.25M21.4395 1912.94H12.4844M-123.295 1908.37L-123.295 1917.25M-118.787 1912.94H-127.742M716.807 2048.47V2057.35M721.314 2053.04H712.359M857.041 2048.47V2057.35M861.549 2053.04H852.594M857.041 2188.46V2197.34M861.549 2193.04H852.594M716.814 2188.46V2197.34M721.322 2193.04H712.367M1277.18 2048.47V2057.35M1281.69 2053.04H1272.73M1417.42 2048.47V2057.35M1421.92 2053.04H1412.97M1417.42 2188.46V2197.34M1421.92 2193.04H1412.97M1277.19 2188.46V2197.34M1281.7 2193.04H1272.74M436.619 2048.47V2057.35M441.127 2053.04H432.172M576.854 2048.47V2057.35M581.361 2053.04H572.406M576.854 2188.46V2197.34M581.361 2193.04H572.406M436.627 2188.46V2197.34M441.135 2193.04H432.18M996.994 2048.47V2057.35M1001.5 2053.04H992.547M1137.23 2048.47V2057.35M1141.74 2053.04H1132.78M1137.23 2188.46V2197.34M1141.74 2193.04H1132.78M997.002 2188.46V2197.34M1001.51 2193.04H992.555M1557.37 2048.47V2057.35M1561.88 2053.04H1552.92M1697.6 2048.47V2057.35M1702.11 2053.04H1693.16M1697.6 2188.46V2197.34M1702.11 2193.04H1693.16M1557.38 2188.46V2197.34M1561.88 2193.04H1552.93M1837.56 2048.47V2057.35M1842.06 2053.04H1833.11M1977.79 2048.47V2057.35M1982.3 2053.04H1973.34M1977.79 2188.46V2197.34M1982.3 2193.04H1973.34M1837.56 2188.46V2197.34M1842.07 2193.04H1833.12M156.432 2048.35V2057.23M160.939 2052.92H151.984M296.666 2048.35V2057.23M301.174 2052.92H292.219M296.666 2188.34V2197.22M301.174 2192.92H292.219M156.439 2188.34V2197.22M160.947 2192.92H151.992M-123.303 2048.47L-123.303 2057.35M-118.795 2053.04H-127.75M16.9316 2048.47V2057.35M21.4395 2053.04H12.4844M16.9316 2188.46V2197.34M21.4395 2193.04H12.4844M-123.295 2188.46L-123.295 2197.34M-118.787 2193.04H-127.742M156.432 928.759V937.638M160.939 933.332H151.984M296.666 928.759V937.638M301.174 933.332H292.219M296.666 1068.76V1077.64M301.174 1073.33H292.219M156.439 1068.76V1077.64M160.947 1073.33H151.992M716.807 928.81V937.689M721.314 933.383H712.359M857.041 928.81V937.689M861.549 933.383H852.594M857.041 1068.81V1077.69M861.549 1073.38H852.594M716.814 1068.81V1077.69M721.322 1073.38H712.367M1277.18 928.81V937.689M1281.69 933.383H1272.73M1417.42 928.81V937.689M1421.92 933.383H1412.97M1417.42 1068.81V1077.69M1421.92 1073.38H1412.97M1277.19 1068.81V1077.69M1281.7 1073.38H1272.74M436.619 928.81V937.689M441.127 933.383H432.172M576.854 928.81V937.689M581.361 933.383H572.406M576.854 1068.81V1077.69M581.361 1073.38H572.406M436.627 1068.81V1077.69M441.135 1073.38H432.18M996.994 928.81V937.689M1001.5 933.383H992.547M1137.23 928.81V937.689M1141.74 933.383H1132.78M1137.23 1068.81V1077.69M1141.74 1073.38H1132.78M997.002 1068.81V1077.69M1001.51 1073.38H992.555M1557.37 928.81V937.689M1561.88 933.383H1552.92M1697.6 928.81V937.689M1702.11 933.383H1693.16M1697.6 1068.81V1077.69M1702.11 1073.38H1693.16M1557.38 1068.81V1077.69M1561.88 1073.38H1552.93M1837.56 928.81V937.689M1842.06 933.383H1833.11M1977.79 928.81V937.689M1982.3 933.383H1973.34M1977.79 1068.81V1077.69M1982.3 1073.38H1973.34M1837.56 1068.81V1077.69M1842.07 1073.38H1833.12M-123.303 928.81L-123.303 937.689M-118.795 933.383H-127.75M16.9316 928.81V937.689M21.4395 933.383H12.4844M16.9316 1068.81V1077.69M21.4395 1073.38H12.4844M-123.295 1068.81L-123.295 1077.69M-118.787 1073.38H-127.742" stroke="black"/>
<path opacity="0.05" d="M51.666 -28.7871L51.666 1051.21M16.8262 -28.7871L16.8262 1051.21M86.666 -28.7871L86.666 1051.21M121.666 -28.7871L121.666 1051.21M156.666 -28.7871L156.666 1051.21M191.666 -28.7871L191.666 1051.21M226.666 -28.7871L226.666 1051.21M261.666 -28.7871L261.666 1051.21M296.666 -28.7871L296.666 1051.21M331.666 -28.7871L331.666 1051.21M366.666 -28.7871L366.666 1051.21M401.666 -28.7871L401.666 1051.21M436.666 -28.7871L436.666 1051.21M471.666 -28.7871L471.666 1051.21M506.666 -28.7871L506.666 1051.21M541.666 -28.7871L541.666 1051.21M576.666 -28.7871L576.666 1051.21M611.666 -28.7871L611.666 1051.21M646.666 -28.7871L646.666 1051.21M681.666 -28.7871L681.666 1051.21M716.666 -28.7871L716.666 1051.21M751.666 -28.7871L751.666 1051.21M786.666 -28.7871L786.666 1051.21M821.666 -28.7871L821.666 1051.21M856.666 -28.7871L856.666 1051.21M891.666 -28.7871L891.666 1051.21M926.666 -28.7871V1051.21M961.666 -28.7871V1051.21M996.666 -28.7871V1051.21M1031.67 -28.7871V1051.21M1066.67 -28.7871V1051.21M1101.67 -28.7871V1051.21M1136.67 -28.7871V1051.21M1171.67 -28.7871V1051.21M1206.67 -28.7871V1051.21M1241.67 -28.7871V1051.21M1276.67 -28.7871V1051.21M1311.67 -28.7871V1051.21M1346.67 -28.7871V1051.21M1381.67 -28.7871V1051.21M1416.67 -28.7871V1051.21M1451.67 -28.7871V1051.21M1486.67 -28.7871V1051.21M1521.67 -28.7871V1051.21M1556.67 -28.7871V1051.21M1591.67 -28.7871V1051.21M1626.67 -28.7871V1051.21M1661.67 -28.7871V1051.21M1696.67 -28.7871V1051.21M1731.67 -28.7871V1051.21M1766.07 -28.7871V1051.21M1800.48 -28.7871V1051.21M1834.88 -28.7871V1051.21M1869.29 -28.7871V1051.21M1903.7 -28.7871V1051.21M-0.240189 1038.31H1919.76M-0.240189 1003.31H1919.76M-0.240189 968.309H1919.76M-0.240196 933.309H1919.76M-0.240196 898.31H1919.76M-0.240196 863.31H1919.76M-0.240196 828.31H1919.76M-0.240196 793.31H1919.76M-0.240204 758.31H1919.76M-0.240204 723.31H1919.76M-0.240204 688.31H1919.76M-0.240204 653.31H1919.76M-0.240204 618.31H1919.76M-0.240211 583.31H1919.76M-0.240211 548.31H1919.76M-0.240211 513.31H1919.76M-0.240211 478.31H1919.76M-0.240211 443.31H1919.76M-0.240219 408.31H1919.76M-0.240219 373.31H1919.76M-0.240219 338.31H1919.76M-0.240219 303.31H1919.76M-0.240219 268.31H1919.76M-0.240227 233.31H1919.76M-0.240227 198.31H1919.76M-0.240227 163.31H1919.76M-0.240227 128.31H1919.76M-0.240227 93.3096H1919.76M-0.240234 58.3096H1919.76M-0.240234 23.3096H1919.76M-0.240234 -11.6904H1919.76M716.807 158.716V167.595M721.314 163.289H712.359M857.041 158.716V167.595M861.549 163.289H852.594M857.041 298.713V307.593M861.549 303.286H852.594M716.814 298.713V307.593M721.322 303.286H712.367M1277.18 158.716V167.595M1281.69 163.289H1272.73M1417.42 158.716V167.595M1421.92 163.289H1412.97M1417.42 298.713V307.593M1421.92 303.286H1412.97M1277.19 298.713V307.593M1281.7 303.286H1272.74M436.619 158.716V167.595M441.127 163.289H432.172M576.854 158.716V167.595M581.361 163.289H572.406M576.854 298.713V307.593M581.361 303.286H572.406M436.627 298.713V307.593M441.135 303.286H432.18M996.994 158.716V167.595M1001.5 163.289H992.547M1137.23 158.716V167.595M1141.74 163.289H1132.78M1137.23 298.713V307.593M1141.74 303.286H1132.78M997.002 298.713V307.593M1001.51 303.286H992.555M1557.37 158.716V167.595M1561.88 163.289H1552.92M1697.6 158.716V167.595M1702.11 163.289H1693.16M1697.6 298.713V307.593M1702.11 303.286H1693.16M1557.38 298.713V307.593M1561.88 303.286H1552.93M1837.56 158.716V167.595M1842.06 163.289H1833.11M1977.79 158.716V167.595M1982.3 163.289H1973.34M1977.79 298.713V307.593M1982.3 303.286H1973.34M1837.56 298.713V307.593M1842.07 303.286H1833.12M156.432 158.716V167.595M160.939 163.289H151.984M296.666 158.716V167.595M301.174 163.289H292.219M296.666 298.713V307.593M301.174 303.286H292.219M156.439 298.713V307.593M160.947 303.286H151.992M-123.303 158.716L-123.303 167.595M-118.795 163.289H-127.75M16.9316 158.716V167.595M21.4395 163.289H12.4844M16.9316 298.713V307.593M21.4395 303.286H12.4844M-123.295 298.713L-123.295 307.593M-118.787 303.286H-127.742M716.807 438.593V447.472M721.314 443.166H712.359M857.041 438.593V447.472M861.549 443.166H852.594M857.041 578.59V587.469M861.549 583.163H852.594M716.814 578.59V587.469M721.322 583.163H712.367M1277.18 438.593V447.472M1281.69 443.166H1272.73M1417.42 438.593V447.472M1421.92 443.166H1412.97M1417.42 578.59V587.469M1421.92 583.163H1412.97M1277.19 578.59V587.469M1281.7 583.163H1272.74M436.619 438.593V447.472M441.127 443.166H432.172M576.854 438.593V447.472M581.361 443.166H572.406M576.854 578.59V587.469M581.361 583.163H572.406M436.627 578.59V587.469M441.135 583.163H432.18M996.994 438.593V447.472M1001.5 443.166H992.547M1137.23 438.593V447.472M1141.74 443.166H1132.78M1137.23 578.59V587.469M1141.74 583.163H1132.78M997.002 578.59V587.469M1001.51 583.163H992.555M1557.37 438.593V447.472M1561.88 443.166H1552.92M1697.6 438.593V447.472M1702.11 443.166H1693.16M1697.6 578.59V587.469M1702.11 583.163H1693.16M1557.38 578.59V587.469M1561.88 583.163H1552.93M1837.56 438.593V447.472M1842.06 443.166H1833.11M1977.79 438.593V447.472M1982.3 443.166H1973.34M1977.79 578.59V587.469M1982.3 583.163H1973.34M1837.56 578.59V587.469M1842.07 583.163H1833.12M156.432 438.593V447.472M160.939 443.166H151.984M296.666 438.593V447.472M301.174 443.166H292.219M296.666 578.59V587.469M301.174 583.163H292.219M156.439 578.59V587.469M160.947 583.163H151.992M-123.303 438.593L-123.303 447.472M-118.795 443.166H-127.75M16.9316 438.593V447.472M21.4395 443.166H12.4844M16.9316 578.59V587.469M21.4395 583.163H12.4844M-123.295 578.59L-123.295 587.469M-118.787 583.163H-127.742M716.807 718.371V727.251M721.314 722.944H712.359M857.041 718.371V727.251M861.549 722.944H852.594M857.041 858.368V867.248M861.549 862.941H852.594M716.814 858.368V867.248M721.322 862.941H712.367M1277.18 718.371V727.251M1281.69 722.944H1272.73M1417.42 718.371V727.251M1421.92 722.944H1412.97M1417.42 858.368V867.248M1421.92 862.941H1412.97M1277.19 858.368V867.248M1281.7 862.941H1272.74M436.619 718.371V727.251M441.127 722.944H432.172M576.854 718.371V727.251M581.361 722.944H572.406M576.854 858.368V867.248M581.361 862.941H572.406M436.627 858.368V867.248M441.135 862.941H432.18M996.994 718.371V727.251M1001.5 722.944H992.547M1137.23 718.371V727.251M1141.74 722.944H1132.78M1137.23 858.368V867.248M1141.74 862.941H1132.78M997.002 858.368V867.248M1001.51 862.941H992.555M1557.37 718.371V727.251M1561.88 722.944H1552.92M1697.6 718.371V727.251M1702.11 722.944H1693.16M1697.6 858.368V867.248M1702.11 862.941H1693.16M1557.38 858.368V867.248M1561.88 862.941H1552.93M1837.56 718.371V727.251M1842.06 722.944H1833.11M1977.79 718.371V727.251M1982.3 722.944H1973.34M1977.79 858.368V867.248M1982.3 862.941H1973.34M1837.56 858.368V867.248M1842.07 862.941H1833.12M156.432 718.47V727.349M160.939 723.043H151.984M296.666 718.47V727.349M301.174 723.043H292.219M296.666 858.467V867.346M301.174 863.04H292.219M156.439 858.467V867.346M160.947 863.04H151.992M-123.303 718.371L-123.303 727.251M-118.795 722.944H-127.75M16.9316 718.371V727.251M21.4395 722.944H12.4844M16.9316 858.368V867.248M21.4395 862.941H12.4844M-123.295 858.368L-123.295 867.248M-118.787 862.941H-127.742M716.807 998.466V1007.35M721.314 1003.04H712.359M857.041 998.466V1007.35M861.549 1003.04H852.594M857.041 1138.46V1147.34M861.549 1143.04H852.594M716.814 1138.46V1147.34M721.322 1143.04H712.367M1277.18 998.466V1007.35M1281.69 1003.04H1272.73M1417.42 998.466V1007.35M1421.92 1003.04H1412.97M1417.42 1138.46V1147.34M1421.92 1143.04H1412.97M1277.19 1138.46V1147.34M1281.7 1143.04H1272.74M436.619 998.466V1007.35M441.127 1003.04H432.172M576.854 998.466V1007.35M581.361 1003.04H572.406M576.854 1138.46V1147.34M581.361 1143.04H572.406M436.627 1138.46V1147.34M441.135 1143.04H432.18M996.994 998.466V1007.35M1001.5 1003.04H992.547M1137.23 998.466V1007.35M1141.74 1003.04H1132.78M1137.23 1138.46V1147.34M1141.74 1143.04H1132.78M997.002 1138.46V1147.34M1001.51 1143.04H992.555M1557.37 998.466V1007.35M1561.88 1003.04H1552.92M1697.6 998.466V1007.35M1702.11 1003.04H1693.16M1697.6 1138.46V1147.34M1702.11 1143.04H1693.16M1557.38 1138.46V1147.34M1561.88 1143.04H1552.93M1837.56 998.466V1007.35M1842.06 1003.04H1833.11M1977.79 998.466V1007.35M1982.3 1003.04H1973.34M1977.79 1138.46V1147.34M1982.3 1143.04H1973.34M1837.56 1138.46V1147.34M1842.07 1143.04H1833.12M156.432 998.345V1007.23M160.939 1002.92H151.984M296.666 998.345V1007.23M301.174 1002.92H292.219M296.666 1138.34V1147.22M301.174 1142.92H292.219M156.439 1138.34V1147.22M160.947 1142.92H151.992M-123.303 998.466L-123.303 1007.35M-118.795 1003.04H-127.75M16.9316 998.466V1007.35M21.4395 1003.04H12.4844M16.9316 1138.46V1147.34M21.4395 1143.04H12.4844M-123.295 1138.46L-123.295 1147.34M-118.787 1143.04H-127.742M156.432 -121.241V-112.362M160.939 -116.668H151.984M296.666 -121.241V-112.362M301.174 -116.668H292.219M296.666 18.7559V27.6355M301.174 23.3291H292.219M156.439 18.7559V27.6355M160.947 23.3291H151.992M716.807 -121.19V-112.311M721.314 -116.617H712.359M857.041 -121.19V-112.311M861.549 -116.617H852.594M857.041 18.8066V27.6863M861.549 23.3799H852.594M716.814 18.8066V27.6863M721.322 23.3799H712.367M1277.18 -121.19V-112.311M1281.69 -116.617H1272.73M1417.42 -121.19V-112.311M1421.92 -116.617H1412.97M1417.42 18.8066V27.6863M1421.92 23.3799H1412.97M1277.19 18.8066V27.6863M1281.7 23.3799H1272.74M436.619 -121.19V-112.311M441.127 -116.617H432.172M576.854 -121.19V-112.311M581.361 -116.617H572.406M576.854 18.8066V27.6863M581.361 23.3799H572.406M436.627 18.8066V27.6863M441.135 23.3799H432.18M996.994 -121.19V-112.311M1001.5 -116.617H992.547M1137.23 -121.19V-112.311M1141.74 -116.617H1132.78M1137.23 18.8066V27.6863M1141.74 23.3799H1132.78M997.002 18.8066V27.6863M1001.51 23.3799H992.555M1557.37 -121.19V-112.311M1561.88 -116.617H1552.92M1697.6 -121.19V-112.311M1702.11 -116.617H1693.16M1697.6 18.8066V27.6863M1702.11 23.3799H1693.16M1557.38 18.8066V27.6863M1561.88 23.3799H1552.93M1837.56 -121.19V-112.311M1842.06 -116.617H1833.11M1977.79 -121.19V-112.311M1982.3 -116.617H1973.34M1977.79 18.8066V27.6863M1982.3 23.3799H1973.34M1837.56 18.8066V27.6863M1842.07 23.3799H1833.12M-123.303 -121.19L-123.303 -112.311M-118.795 -116.617H-127.75M16.9316 -121.19V-112.311M21.4395 -116.617H12.4844M16.9316 18.8066V27.6863M21.4395 23.3799H12.4844M-123.295 18.8066L-123.295 27.6863M-118.787 23.3799H-127.742" stroke="black"/>
</svg>
